<svg width="12" height="16" viewBox="0 0 12 16" fill="none" xmlns="http://www.w3.org/2000/svg">
<path d="M5.87325 0.539062C2.91308 0.539062 0.51123 2.70096 0.51123 5.36488C0.51123 9.65449 5.87325 15.5527 5.87325 15.5527C5.87325 15.5527 11.2353 9.65449 11.2353 5.36488C11.2353 2.70096 8.83341 0.539062 5.87325 0.539062ZM5.87325 8.04589C5.44904 8.04589 5.03437 7.92009 4.68166 7.68442C4.32894 7.44875 4.05404 7.11377 3.8917 6.72186C3.72937 6.32995 3.68689 5.8987 3.76965 5.48265C3.85241 5.0666 4.05668 4.68443 4.35664 4.38447C4.6566 4.08451 5.03876 3.88024 5.45482 3.79748C5.87087 3.71473 6.30212 3.7572 6.69403 3.91954C7.08594 4.08187 7.42091 4.35678 7.65659 4.70949C7.89226 5.0622 8.01805 5.47688 8.01805 5.90108C8.01743 6.46973 7.79126 7.01491 7.38917 7.417C6.98707 7.81909 6.44189 8.04526 5.87325 8.04589Z" fill="white"/>
</svg>
