<svg width="16" height="16" viewBox="0 0 16 16" fill="none" xmlns="http://www.w3.org/2000/svg">
<path d="M7.87348 0.810547C6.93461 0.810547 6.00494 0.99547 5.13754 1.35476C4.27014 1.71405 3.482 2.24067 2.81812 2.90454C1.47735 4.24531 0.724121 6.06377 0.724121 7.9599C0.724121 9.85603 1.47735 11.6745 2.81812 13.0153C3.482 13.6791 4.27014 14.2058 5.13754 14.565C6.00494 14.9243 6.93461 15.1093 7.87348 15.1093C9.7696 15.1093 11.5881 14.356 12.9288 13.0153C14.2696 11.6745 15.0228 9.85603 15.0228 7.9599C15.0228 7.02103 14.8379 6.09136 14.4786 5.22396C14.1193 4.35656 13.5927 3.56842 12.9288 2.90454C12.265 2.24067 11.4768 1.71405 10.6094 1.35476C9.74202 0.99547 8.81234 0.810547 7.87348 0.810547ZM10.8762 10.9626L7.15854 8.67484V4.38522H8.23094V8.10289L11.4482 10.0332L10.8762 10.9626Z" fill="white"/>
</svg>
